{
	"asset":{
		"generator":"Khronos glTF Blender I/O v5.1.19",
		"version":"2.0"
	},
	"scene":0,
	"scenes":[
		{
			"name":"Scene",
			"nodes":[
				0
			]
		}
	],
	"nodes":[
		{
			"mesh":0,
			"name":"soil_at",
			"scale":[
				75,
				1,
				75
			]
		}
	],
	"meshes":[
		{
			"name":"Plane",
			"primitives":[
				{
					"attributes":{
						"POSITION":0,
						"NORMAL":1,
						"TEXCOORD_0":2,
						"COLOR_0":3
					},
					"indices":4
				}
			]
		}
	],
	"accessors":[
		{
			"bufferView":0,
			"componentType":5126,
			"count":28793,
			"max":[
				1,
				11.100427627563477,
				1
			],
			"min":[
				-1,
				-6.0874552726745605,
				-1
			],
			"type":"VEC3"
		},
		{
			"bufferView":1,
			"componentType":5126,
			"count":28793,
			"type":"VEC3"
		},
		{
			"bufferView":2,
			"componentType":5126,
			"count":28793,
			"type":"VEC2"
		},
		{
			"bufferView":3,
			"componentType":5123,
			"count":28793,
			"normalized":true,
			"type":"VEC4"
		},
		{
			"bufferView":4,
			"componentType":5123,
			"count":61206,
			"type":"SCALAR"
		}
	],
	"bufferViews":[
		{
			"buffer":0,
			"byteLength":345516,
			"byteOffset":0,
			"target":34962
		},
		{
			"buffer":0,
			"byteLength":345516,
			"byteOffset":345516,
			"target":34962
		},
		{
			"buffer":0,
			"byteLength":230344,
			"byteOffset":691032,
			"target":34962
		},
		{
			"buffer":0,
			"byteLength":230344,
			"byteOffset":921376,
			"target":34962
		},
		{
			"buffer":0,
			"byteLength":122412,
			"byteOffset":1151720,
			"target":34963
		}
	],
	"buffers":[
		{
			"byteLength":1274132,
			"uri":"terrain.bin"
		}
	]
}
